<svg width="193" height="129" viewBox="0 0 193 129" fill="none" xmlns="http://www.w3.org/2000/svg">
<circle cx="83.9407" cy="69.4841" r="52.5" transform="rotate(-8.2423 83.9407 69.4841)" fill="#D7B377"/>
<path d="M156.288 77.737L129.326 58.8179L108 111L153.426 102.476C155.684 102.053 157.363 100.145 157.496 97.8516L158.408 82.1193C158.508 80.39 157.706 78.732 156.288 77.737Z" fill="#D7B377" stroke="#D7B377"/>
<circle cx="103.084" cy="56.5906" r="6.5" fill="black"/>
<path d="M150.584 81.5906V73.5906L156.04 77.0006C157.622 77.9897 158.584 79.7243 158.584 81.5906H150.584Z" fill="black" stroke="black"/>
<path d="M60.6504 18.9512L64.8022 19.9355C77.0996 22.851 83.6435 36.2997 78.3486 47.7752L58.0666 91.7322C56.1339 95.9209 50.4867 96.6481 47.5559 93.0856C45.4294 90.5009 41.6452 90.048 38.9688 92.0578L36.2638 94.0891C32.4324 96.9664 27.0815 96.6482 23.618 93.3372L21.4239 91.2397C19.8939 89.7771 17.9292 88.8524 15.8269 88.6057C8.61826 87.7596 4.83228 79.6114 8.83436 73.5563L39.3517 27.3839C43.9789 20.3829 52.4847 17.0153 60.6504 18.9512Z" fill="#8F754F" stroke="#8F754F"/>
<path d="M179.044 21.8751H191.331C191.48 21.8752 191.625 21.9175 191.75 21.9972C191.876 22.0769 191.976 22.1906 192.038 22.3251C192.101 22.4595 192.125 22.6091 192.106 22.7563C192.087 22.9036 192.026 23.0423 191.931 23.1564L185.788 30.5314C185.714 30.6193 185.622 30.69 185.519 30.7386C185.415 30.7871 185.302 30.8123 185.188 30.8123C185.073 30.8123 184.96 30.7871 184.856 30.7386C184.753 30.69 184.661 30.6193 184.588 30.5314L178.444 23.1564C178.349 23.0423 178.288 22.9036 178.269 22.7563C178.25 22.6091 178.274 22.4595 178.337 22.3251C178.4 22.1906 178.499 22.0769 178.625 21.9972C178.75 21.9175 178.895 21.8752 179.044 21.8751ZM144.669 28.1251H156.956C157.105 28.1251 157.25 28.0827 157.375 28.0031C157.501 27.9234 157.601 27.8097 157.663 27.6752C157.726 27.5408 157.75 27.3912 157.731 27.244C157.712 27.0967 157.651 26.958 157.556 26.8439L151.413 19.4689C151.339 19.381 151.247 19.3102 151.144 19.2617C151.04 19.2131 150.927 19.188 150.813 19.188C150.698 19.188 150.585 19.2131 150.481 19.2617C150.378 19.3102 150.286 19.381 150.213 19.4689L144.069 26.8439C143.974 26.958 143.913 27.0967 143.894 27.244C143.875 27.3912 143.899 27.5408 143.962 27.6752C144.025 27.8097 144.124 27.9234 144.25 28.0031C144.375 28.0827 144.52 28.1251 144.669 28.1251Z" fill="#8F754F"/>
<path fill-rule="evenodd" clip-rule="evenodd" d="M168 9.37493C163.15 9.37493 158.813 11.5843 155.947 15.0562C155.819 15.222 155.659 15.3605 155.476 15.4632C155.294 15.566 155.093 15.631 154.884 15.6544C154.676 15.6779 154.465 15.6592 154.265 15.5995C154.064 15.5398 153.877 15.4404 153.716 15.3071C153.554 15.1738 153.421 15.0093 153.324 14.8235C153.227 14.6378 153.169 14.4344 153.152 14.2256C153.136 14.0168 153.161 13.8067 153.227 13.608C153.294 13.4093 153.399 13.2258 153.538 13.0687C155.826 10.2985 158.861 8.24372 162.283 7.14886C165.705 6.054 169.37 5.96509 172.841 6.89271C176.312 7.82033 179.444 9.72545 181.864 12.3815C184.284 15.0375 185.889 18.3326 186.491 21.8749H183.313C182.591 18.3462 180.673 15.1749 177.883 12.8973C175.093 10.6196 171.602 9.37537 168 9.37493ZM152.688 28.1249C153.279 31.0144 154.676 33.6775 156.717 35.8066C158.758 37.9357 161.36 39.444 164.222 40.1571C167.084 40.8702 170.089 40.759 172.89 39.8365C175.692 38.914 178.175 37.2177 180.053 34.9437C180.181 34.7778 180.341 34.6394 180.524 34.5366C180.706 34.4338 180.908 34.3688 181.116 34.3454C181.324 34.322 181.535 34.3407 181.735 34.4004C181.936 34.4601 182.123 34.5595 182.285 34.6928C182.446 34.8261 182.579 34.9905 182.676 35.1763C182.773 35.3621 182.831 35.5655 182.848 35.7743C182.864 35.9831 182.839 36.1931 182.773 36.3919C182.707 36.5906 182.601 36.774 182.463 36.9312C180.174 39.7014 177.139 41.7561 173.717 42.851C170.295 43.9459 166.63 44.0348 163.159 43.1072C159.688 42.1795 156.556 40.2744 154.136 37.6184C151.717 34.9624 150.111 31.6673 149.509 28.1249H152.688Z" fill="#8F754F"/>
</svg>
