<svg width="29" height="29" viewBox="0 0 29 29" fill="none" xmlns="http://www.w3.org/2000/svg">
<g clip-path="url(#clip0)">
<path d="M14.5 27.1875C11.1351 27.1875 7.90795 25.8508 5.52858 23.4714C3.14921 21.092 1.8125 17.8649 1.8125 14.5C1.8125 11.1351 3.14921 7.90795 5.52858 5.52858C7.90795 3.14921 11.1351 1.8125 14.5 1.8125C17.8649 1.8125 21.092 3.14921 23.4714 5.52858C25.8508 7.90795 27.1875 11.1351 27.1875 14.5C27.1875 17.8649 25.8508 21.092 23.4714 23.4714C21.092 25.8508 17.8649 27.1875 14.5 27.1875ZM14.5 29C18.3456 29 22.0338 27.4723 24.753 24.753C27.4723 22.0338 29 18.3456 29 14.5C29 10.6544 27.4723 6.96623 24.753 4.24695C22.0338 1.52767 18.3456 0 14.5 0C10.6544 0 6.96623 1.52767 4.24695 4.24695C1.52767 6.96623 0 10.6544 0 14.5C0 18.3456 1.52767 22.0338 4.24695 24.753C6.96623 27.4723 10.6544 29 14.5 29Z" fill="white"/>
<path d="M19.9375 14.5C19.9375 15.9421 19.3646 17.3252 18.3449 18.3449C17.3252 19.3646 15.9421 19.9375 14.5 19.9375C13.0579 19.9375 11.6748 19.3646 10.6551 18.3449C9.63538 17.3252 9.0625 15.9421 9.0625 14.5C9.0625 13.0579 9.63538 11.6748 10.6551 10.6551C11.6748 9.63538 13.0579 9.0625 14.5 9.0625C15.9421 9.0625 17.3252 9.63538 18.3449 10.6551C19.3646 11.6748 19.9375 13.0579 19.9375 14.5Z" fill="white"/>
</g>
<defs>
<clipPath id="clip0">
<rect width="29" height="29" fill="white"/>
</clipPath>
</defs>
</svg>
