<svg width="28" height="28" viewBox="0 0 28 28" fill="none" xmlns="http://www.w3.org/2000/svg">
<path d="M0.875 17.3251C1.10706 17.3251 1.32962 17.4173 1.49372 17.5814C1.65781 17.7455 1.75 17.968 1.75 18.2001V22.5751C1.75 23.0392 1.93437 23.4843 2.26256 23.8125C2.59075 24.1407 3.03587 24.3251 3.5 24.3251H24.5C24.9641 24.3251 25.4092 24.1407 25.7374 23.8125C26.0656 23.4843 26.25 23.0392 26.25 22.5751V18.2001C26.25 17.968 26.3422 17.7455 26.5063 17.5814C26.6704 17.4173 26.8929 17.3251 27.125 17.3251C27.3571 17.3251 27.5796 17.4173 27.7437 17.5814C27.9078 17.7455 28 17.968 28 18.2001V22.5751C28 23.5033 27.6313 24.3936 26.9749 25.0499C26.3185 25.7063 25.4283 26.0751 24.5 26.0751H3.5C2.57174 26.0751 1.6815 25.7063 1.02513 25.0499C0.368749 24.3936 0 23.5033 0 22.5751V18.2001C0 17.968 0.0921872 17.7455 0.256282 17.5814C0.420376 17.4173 0.642936 17.3251 0.875 17.3251Z" fill="white"/>
<path d="M13.3805 2.00548C13.4618 1.92399 13.5583 1.85934 13.6646 1.81523C13.771 1.77112 13.8849 1.74841 14 1.74841C14.1151 1.74841 14.2291 1.77112 14.3354 1.81523C14.4417 1.85934 14.5382 1.92399 14.6195 2.00548L19.8695 7.25548C20.0338 7.41978 20.1261 7.64262 20.1261 7.87498C20.1261 8.10734 20.0338 8.33018 19.8695 8.49448C19.7052 8.65878 19.4824 8.75108 19.25 8.75108C19.0176 8.75108 18.7948 8.65878 18.6305 8.49448L14.875 4.73723V20.125C14.875 20.357 14.7828 20.5796 14.6187 20.7437C14.4546 20.9078 14.2321 21 14 21C13.7679 21 13.5454 20.9078 13.3813 20.7437C13.2172 20.5796 13.125 20.357 13.125 20.125V4.73723L9.36951 8.49448C9.28815 8.57583 9.19157 8.64037 9.08528 8.68439C8.97898 8.72842 8.86506 8.75108 8.75001 8.75108C8.63496 8.75108 8.52103 8.72842 8.41474 8.68439C8.30844 8.64037 8.21186 8.57583 8.13051 8.49448C8.04915 8.41312 7.98462 8.31654 7.94059 8.21025C7.89656 8.10395 7.8739 7.99003 7.8739 7.87498C7.8739 7.75993 7.89656 7.646 7.94059 7.53971C7.98462 7.43341 8.04915 7.33683 8.13051 7.25548L13.3805 2.00548Z" fill="white"/>
</svg>
