<svg width="29" height="29" viewBox="0 0 29 29" fill="none" xmlns="http://www.w3.org/2000/svg">
<path d="M28.6919 14.8263C28.6919 13.8717 28.6073 12.9655 28.4623 12.0834H14.8081V17.533H22.626C22.2756 19.3213 21.2485 20.8317 19.726 21.8588V25.4838H24.3902C27.121 22.9584 28.6919 19.2367 28.6919 14.8263Z" fill="#4285F4"/>
<path d="M14.8081 29C18.7231 29 21.9977 27.695 24.3902 25.4838L19.726 21.8588C18.421 22.7288 16.7656 23.2604 14.8081 23.2604C11.026 23.2604 7.82391 20.7108 6.67599 17.2671H1.86682V21.0008C4.24724 25.7375 9.14099 29 14.8081 29Z" fill="#34A853"/>
<path d="M6.67602 17.2671C6.37394 16.3971 6.21686 15.4666 6.21686 14.5C6.21686 13.5333 6.38602 12.6029 6.67602 11.7329V7.99915H1.86685C0.876021 9.95665 0.308105 12.1558 0.308105 14.5C0.308105 16.8441 0.876021 19.0433 1.86685 21.0008L6.67602 17.2671Z" fill="#FBBC05"/>
<path d="M14.8081 5.73958C16.9468 5.73958 18.856 6.47667 20.3664 7.91459L24.4989 3.78208C21.9977 1.43792 18.7231 0 14.8081 0C9.14099 0 4.24724 3.2625 1.86682 7.99917L6.67599 11.7329C7.82391 8.28917 11.026 5.73958 14.8081 5.73958Z" fill="#EA4335"/>
</svg>
