<svg width="197" height="141" viewBox="0 0 197 141" fill="none" xmlns="http://www.w3.org/2000/svg">
<path d="M168.06 22.08C166.62 22.08 165.26 22.26 163.98 22.62C162.7 22.98 161.28 23.56 159.72 24.36L157.2 17.58C158.76 16.58 160.6 15.82 162.72 15.3C164.84 14.74 166.92 14.46 168.96 14.46C171.52 14.46 173.62 14.8 175.26 15.48C176.94 16.16 178.26 17.02 179.22 18.06C180.18 19.1 180.84 20.24 181.2 21.48C181.6 22.72 181.8 23.9 181.8 25.02C181.8 26.14 181.62 27.18 181.26 28.14C180.94 29.06 180.52 29.92 180 30.72C179.48 31.52 178.88 32.28 178.2 33C177.52 33.72 176.86 34.4 176.22 35.04C175.74 35.52 175.24 36.04 174.72 36.6C174.2 37.12 173.72 37.68 173.28 38.28C172.88 38.88 172.54 39.52 172.26 40.2C171.98 40.84 171.84 41.5 171.84 42.18C171.84 42.34 171.84 42.58 171.84 42.9C171.84 43.22 171.86 43.5 171.9 43.74H163.98C163.9 43.34 163.84 42.9 163.8 42.42C163.8 41.9 163.8 41.46 163.8 41.1C163.8 39.98 163.94 38.98 164.22 38.1C164.5 37.18 164.86 36.34 165.3 35.58C165.78 34.78 166.32 34.04 166.92 33.36C167.52 32.68 168.14 32.02 168.78 31.38C169.7 30.46 170.54 29.56 171.3 28.68C172.06 27.76 172.44 26.72 172.44 25.56C172.44 24.6 172.06 23.78 171.3 23.1C170.58 22.42 169.5 22.08 168.06 22.08ZM173.64 52.26C173.64 54.02 173.06 55.38 171.9 56.34C170.78 57.3 169.5 57.78 168.06 57.78C166.62 57.78 165.32 57.3 164.16 56.34C163.04 55.38 162.48 54.02 162.48 52.26C162.48 50.5 163.04 49.14 164.16 48.18C165.32 47.22 166.62 46.74 168.06 46.74C169.5 46.74 170.78 47.22 171.9 48.18C173.06 49.14 173.64 50.5 173.64 52.26Z" fill="#8F754F"/>
<circle cx="83.9407" cy="81.4841" r="52.5" transform="rotate(-8.2423 83.9407 81.4841)" fill="#D7B377"/>
<path d="M156.288 89.7371L129.326 70.8181L108 123L153.426 114.477C155.684 114.053 157.363 112.145 157.496 109.852L158.408 94.1194C158.508 92.3901 157.706 90.7321 156.288 89.7371Z" fill="#D7B377" stroke="#D7B377"/>
<circle cx="103.084" cy="68.5906" r="6.5" fill="black"/>
<path d="M150.584 93.5906V85.5906L156.04 89.0006C157.622 89.9897 158.584 91.7243 158.584 93.5906H150.584Z" fill="black" stroke="black"/>
<path d="M60.6504 30.9512L64.8022 31.9355C77.0996 34.851 83.6435 48.2997 78.3486 59.7752L58.0666 103.732C56.1339 107.921 50.4867 108.648 47.5559 105.086C45.4294 102.501 41.6452 102.048 38.9688 104.058L36.2638 106.089C32.4324 108.966 27.0815 108.648 23.618 105.337L21.4239 103.24C19.8939 101.777 17.9292 100.852 15.8269 100.606C8.61826 99.7596 4.83228 91.6114 8.83436 85.5563L39.3517 39.3839C43.9789 32.3829 52.4847 29.0153 60.6504 30.9512Z" fill="#8F754F" stroke="#8F754F"/>
</svg>
